<svg width="8" height="11" viewBox="0 0 8 11" fill="none" xmlns="http://www.w3.org/2000/svg">
<path d="M3.86914 0.362549C1.88648 0.362549 0.273438 1.9206 0.273438 3.83566C0.273438 6.24268 3.87267 10.3544 3.87267 10.3544C3.87267 10.3544 7.46484 6.12431 7.46484 3.83566C7.46484 1.9206 5.85186 0.362549 3.86914 0.362549ZM4.95404 4.85259C4.65489 5.14147 4.26205 5.28595 3.86914 5.28595C3.47629 5.28595 3.08332 5.14147 2.7843 4.85259C2.18607 4.27481 2.18607 3.33466 2.7843 2.75683C3.07398 2.47691 3.45931 2.32274 3.86914 2.32274C4.27897 2.32274 4.66423 2.47697 4.95404 2.75683C5.55227 3.33466 5.55227 4.27481 4.95404 4.85259Z" fill="white"/>
</svg>
